<svg id="Layer_2" data-name="Layer 2" xmlns="http://www.w3.org/2000/svg" viewBox="0 0 500 704.48"><defs><style>.cls-1{fill:#3aafb9;}.cls-2{fill:#ff3864;}</style></defs><g id="Logo_2" data-name="Logo 2"><path class="cls-1" d="M436.17,65.7H278.34l-8.93,62.51L179,241.09l7.64,64.57H419.91L259.83,494.24C242.88,519.1,246.71,569,246,616.57c-.92,43.46,1.37,78.93,32.11,85.1,39.24,11.51,47.93,20.87,48.82,48.1H475.35l60.18-508.68L445.1,128.21Z" transform="translate(-35.53 -65.7)"/><path class="cls-1" d="M212,635.75a48.85,48.85,0,0,1,.06,6.56c-.72,34,3.33,75.53,26.64,80.26l33.57,6c17.06,2.89,18.87,13.42,19,16.57.34,7.71-5.19,14.24-14.1,16.64-18,5.34-48.2,7.15-75.4,8.22-2.5.09-5,.14-7.53.14s-5,0-7.53-.14c-27.2-1.07-57.45-2.88-75.64-8.28-8.57-2.32-14.2-9-13.86-16.56.14-3.17,1.94-13.72,19.07-16.6L150,722.53c23.12-4.7,27.15-46.22,26.44-80.22a50.45,50.45,0,0,1,.07-6.76c.85-120.67-8.44-149.57-14-156.06L35.53,334H352.88L226,479.51C220.34,486,211,515,212,635.75Z" transform="translate(-35.53 -65.7)"/><path class="cls-2" d="M436.17,65.7H278.34l-8.93,62.51L179,241.09l7.64,64.57H419.91L259.83,494.24C242.88,519.1,246.71,569,246,616.57c-.92,43.46,1.37,78.93,32.11,85.1,39.24,11.51,47.93,20.87,48.82,48.1H475.35l60.18-508.68L445.1,128.21Z" transform="translate(-35.53 -65.7)"/><path class="cls-1" d="M212,635.75a48.85,48.85,0,0,1,.06,6.56c-.72,34,3.33,75.53,26.64,80.26l33.57,6c17.06,2.89,18.87,13.42,19,16.57.34,7.71-5.19,14.24-14.1,16.64-18,5.34-48.2,7.15-75.4,8.22-2.5.09-5,.14-7.53.14s-5,0-7.53-.14c-27.2-1.07-57.45-2.88-75.64-8.28-8.57-2.32-14.2-9-13.86-16.56.14-3.17,1.94-13.72,19.07-16.6L150,722.53c23.12-4.7,27.15-46.22,26.44-80.22a50.45,50.45,0,0,1,.07-6.76c.85-120.67-8.44-149.57-14-156.06L35.53,334H352.88L226,479.51C220.34,486,211,515,212,635.75Z" transform="translate(-35.53 -65.7)"/></g></svg>